# AST/ASF file generated using VICON BodyLanguage
# -----------------------------------------------
:version 1.10
:name VICON
:units
  mass 1.0
  length 0.45
  angle deg
:documentation
   .ast/.asf automatically generated from VICON data using
   VICON BodyBuilder and BodyLanguage model FoxedUp or BRILLIANT.MOD
:root
   order TX TY TZ RX RY RZ
   axis XYZ
   position 0 0 0  
   orientation 0 0 0 
:bonedata
  begin
     id 1 
     name lhipjoint
     direction 0.655637 -0.713449 0.247245 
     length 2.52691 
     axis 0 0 0  XYZ
  end
  begin
     id 2 
     name lfemur
     direction 0.34202 -0.939693 0  
     length 7.59371  
     axis 0 0 20  XYZ
    dof rx ry rz
    limits (-160.0 20.0)
           (-70.0 70.0)
           (-60.0 70.0)
  end
  begin
     id 3 
     name ltibia
     direction 0.34202 -0.939693 0   
     length 7.28717   
     axis 0 0 20   XYZ
    dof rx
    limits (-10.0 170.0)
  end
  begin
     id 4 
     name lfoot
     direction 0.0886837 -0.243657 0.965798   
     length 2.2218   
     axis -90 7.62852e-016 20   XYZ
    dof rx rz
    limits (-45.0 90.0)
           (-70.0 20.0)
  end
  begin
     id 5 
     name ltoes
     direction 1.53547e-011 -4.22004e-011 1   
     length 1.11249   
     axis -90 7.62852e-016 20   XYZ
    dof rx
    limits (-90.0 20.0)
  end
  begin
     id 6 
     name rhipjoint
     direction -0.645062 -0.722004 0.250209   
     length 2.49697  
     axis 0 0 0  XYZ 
  end
  begin
     id 7 
     name rfemur
     direction -0.34202 -0.939693 0   
     length 7.58734   
     axis 0 0 -20   XYZ
    dof rx ry rz
    limits (-160.0 20.0)
           (-70.0 70.0)
           (-70.0 60.0)
  end
  begin
     id 8 
     name rtibia
     direction -0.34202 -0.939693 0   
     length 7.21538   
     axis 0 0 -20   XYZ
    dof rx
    limits (-10.0 170.0)
 end
 begin
     id 9 
     name rfoot
     direction -0.102907 -0.282735 0.953662   
     length 2.23735  
     axis -90 -7.62852e-016 -20   XYZ
    dof rx rz
    limits (-45.0 90.0)
           (-20.0 70.0)
  end
  begin
     id 10 
     name rtoes
     direction -1.5354e-011 -4.21751e-011 1   
     length 1.11569   
     axis -90 -7.62852e-016 -20   XYZ
    dof rx
    limits (-90.0 20.0)
  end
  begin
     id 11 
     name lowerback
     direction 0.00952301 0.997604 -0.0685217   
     length 2.05943   
     axis 0 0 0   XYZ
    dof rx ry rz
    limits (-20.0 45.0)
           (-30.0 30.0)
           (-30.0 30.0)
  end
  begin
     id 12 
     name upperback
     direction 0.00494399 0.999577 -0.0286701   
     length 2.06523   
     axis 0 0 0   XYZ
    dof rx ry rz
    limits (-20.0 45.0)
           (-30.0 30.0)
           (-30.0 30.0)
  end
  begin
     id 13 
     name thorax
     direction 0.000729686 0.999992 0.00388603   
     length 2.06807   
     axis 0 0 0   XYZ
    dof rx ry rz
    limits (-20.0 45.0)
           (-30.0 30.0)
           (-30.0 30.0)
  end
  begin
     id 14 
     name lowerneck
     direction 0.00452882 0.995459 0.0950816   
     length 1.57426   
     axis 0 0 0   XYZ
    dof rx ry rz
    limits (-20.0 45.0)
           (-30.0 30.0)
           (-30.0 30.0)
  end
  begin
     id 15 
     name upperneck
     direction 0.021922 0.997711 -0.0639762   
     length 1.56399   
     axis 0 0 0   XYZ
    dof rx ry rz
    limits (-20.0 45.0)
           (-30.0 30.0)
           (-30.0 30.0)
  end
  begin
     id 16
     name head
     direction 0.008024 0.999444 -0.0323691  
     length 1.6265  
     axis 0 0 0   XYZ
    dof rx ry rz
    limits (-20.0 45.0)
           (-30.0 30.0)
           (-30.0 30.0)
  end
  begin
     id 17 
     name lclavicle
     direction 0.967826 0.247107 -0.0474446  
     length 3.6598  
     axis 0 0 0   XYZ
    dof ry rz
    limits (-20.0 10.0)
           (0.0 20.0)
  end
  begin
     id 18 
     name lhumerus
     direction 1 -4.48971e-011 -2.90544e-027   
     length 4.86513   
     axis 180 -30 -90   XYZ
    dof rx ry rz
    limits (-60.0 90.0)
           (-90.0 90.0)
           (-90.0 90.0)
  end
  begin
     id 19
     name lradius
     direction 1 -4.48958e-011 1.79638e-026   
     length 3.35554   
     axis 180 -30 -90   XYZ
    dof rx
    limits (-10.0 170.0)
  end
  begin
     id 20
     name lwrist
     direction 1 -4.48952e-011 3.34345e-026   
     length 1.67777   
     axis -2.22354e-014 90 90   XYZ
    dof ry
    limits (-180.0 0.0)
 end
  begin
     id 21 
     name lhand
     direction 1 -4.49055e-011 6.6869e-026   
     length 0.661175   
     axis -4.26681e-014 90 90   XYZ
    dof rx rz
    limits (-90.0 90.0)
           (-45.0 45.0)
  end
  begin
     id 22 
     name lfingers
     direction 1 -4.48731e-011 1.33738e-025   
     length 0.533057   
     axis -8.53362e-014 90 90   XYZ
    dof rx
    limits (0.0 90.0)
  end
  begin
     id 23
     name lthumb
     direction 0.707107 -6.35005e-011 0.707107   
     length 0.765366   
     axis -90 45 2.85299e-015   XYZ
    dof rx rz
    limits (-45.0 45.0)
           (-45.0 45.0)
  end
  begin
     id 24 
     name rclavicle
     direction -0.973174 0.211421 -0.0907389   
     length 3.59444  
     axis 0 0 0   XYZ 
    dof ry rz
    limits (-10.0 20.0)
           (-20.0 0.0)
  end
  begin
     id 25 
     name rhumerus
     direction -1 -4.48964e-011 1.56311e-027  
     length 5.02649   
     axis 180 30 90   XYZ
    dof rx ry rz
    limits (-90.0 60.0)
           (-90.0 90.0)
           (-90.0 90.0)
  end
  begin
     id 26 
     name rradius
     direction -1 -4.48948e-011 2.01724e-026   
     length 3.36431   
     axis 180 30 90   XYZ
    dof rx
    limits (-10.0 170.0)
  end
  begin
     id 27 
     name rwrist
     direction -1 -4.49008e-011 3.34345e-026   
     length 1.68216   
     axis -2.22354e-014 -90 -90   XYZ
    dof ry
    limits (-180.0 0.0)
  end
  begin
     id 28
     name rhand
     direction -1 -4.49013e-011 6.6869e-026   
     length 0.730406   
     axis -4.26681e-014 -90 -90   XYZ
    dof rx rz
    limits (-90.0 90.0)
           (-45.0 45.0)
  end
  begin
     id 29
     name rfingers
     direction -1 -4.48867e-011 1.33738e-025   
     length 0.588872   
     axis -8.53362e-014 -90 -90   XYZ
    dof rx
    limits (0.0 90.0)
  end
  begin
     id 30
     name rthumb
     direction -0.707107 -6.34907e-011 0.707107   
     length 0.845506   
     axis -90 -45 -2.85299e-015   XYZ
    dof rx rz
    limits (-45.0 45.0)
           (-45.0 45.0)
  end
:hierarchy
  begin
    root lhipjoint rhipjoint lowerback
    lhipjoint lfemur
    lfemur ltibia
    ltibia lfoot
    lfoot ltoes
    rhipjoint rfemur
    rfemur rtibia
    rtibia rfoot
    rfoot rtoes
    lowerback upperback
    upperback thorax
    thorax lowerneck lclavicle rclavicle
    lowerneck upperneck
    upperneck head
    lclavicle lhumerus
    lhumerus lradius
    lradius lwrist
    lwrist lhand lthumb
    lhand lfingers
    rclavicle rhumerus
    rhumerus rradius
    rradius rwrist
    rwrist rhand rthumb
    rhand rfingers
  end

#!OML:ASF H:\Terrain\Patient Classification 1\Takeo\Monday\TakeoMonday.ASF
:FULLY-SPECIFIED
:DEGREES
147
root 10.3045 25.9509 2.07963 1.1664 -5.58761 -1.33512
lowerback 6.96915 0.183801 1.75715
upperback -3.00872 0.433875 0.217859
thorax -7.05579 0.137669 -0.815277
lowerneck -12.9848 2.06366 -2.13627
upperneck 8.99951 3.25325 -0.818101
head 4.79945 1.46477 0.34396
rclavicle -1.25153e-014 -8.43592e-015
rhumerus -41.3861 6.47076 -96.2012
rradius 48.2278
rwrist -23.6308
rhand -34.3858 25.244
rfingers 7.12502
rthumb -7.552 -4.60121
lclavicle -1.25153e-014 -8.43592e-015
lhumerus -45.1006 2.68622 85.1859
lradius 35.7219
lwrist 23.4489
lhand -19.4837 16.4774
lfingers 7.12502
lthumb 6.83821 46.3469
rfemur -0.547403 -3.06659 22.005
rtibia 23.8231
rfoot 4.61181 -16.5867
rtoes -7.84843
lfemur -0.914927 5.947 -22.0223
ltibia 26.9261
lfoot 8.49366 15.8711
ltoes -6.07791
148
root 10.3324 25.8938 2.07469 1.13598 -5.56897 -1.58692
lowerback 7.57104 0.169234 2.1534
upperback -2.99549 0.469858 0.223011
thorax -7.38683 0.133576 -1.04127
lowerneck -12.911 2.07326 -1.71085
upperneck 8.64524 3.25059 -1.41894
head 4.69521 1.4438 0.0858033
rclavicle -5.74457e-015 3.72721e-016
rhumerus -42.6028 6.45651 -95.6928
rradius 48.1679
rwrist -23.2669
rhand -34.3548 24.6965
rfingers 7.12502
rthumb -7.52205 -5.14972
lclavicle -5.74457e-015 3.72721e-016
lhumerus -46.083 1.56541 84.8803
lradius 36.0689
lwrist 23.8886
lhand -19.1023 15.9447
lfingers 7.12502
lthumb 7.20638 45.802
rfemur -0.937128 -3.02116 22.222
rtibia 24.0053
rfoot 4.02023 -16.1128
rtoes -8.5255
lfemur -1.20818 5.56813 -21.7615
ltibia 26.9458
lfoot 9.12748 15.8823
ltoes -5.05377
149
root 10.3619 25.8228 2.07023 1.12065 -5.46902 -1.28913
lowerback 8.02699 0.153017 2.10376
upperback -2.85832 0.437501 0.0073179
thorax -7.50364 0.114022 -1.23852
lowerneck -13.1503 2.01389 -1.27126
upperneck 8.32561 3.14334 -1.88991
head 4.65044 1.37801 -0.138295
rclavicle 9.28697e-015 2.13694e-015
rhumerus -43.7624 6.65869 -95.3687
rradius 48.5411
rwrist -22.9786
rhand -34.2123 24.0499
rfingers 7.12502
rthumb -7.38445 -5.8012
lclavicle 9.28697e-015 2.13694e-015
lhumerus -46.8614 0.521132 84.4231
lradius 36.6482
lwrist 23.8701
lhand -18.9422 15.3376
lfingers 7.12502
lthumb 7.36091 45.1896
rfemur -1.31922 -3.17827 21.7939
rtibia 24.0256
rfoot 3.608 -15.2073
rtoes -10.5534
lfemur -1.5919 5.07915 -22.1415
ltibia 26.9704
lfoot 9.45677 15.8669
ltoes -4.07404
150
root 10.3854 25.7407 2.06849 1.10837 -5.35943 -0.925458
lowerback 8.35155 0.110559 1.90809
upperback -2.62451 0.35241 -0.15152
thorax -7.44391 0.0798239 -1.28472
lowerneck -13.5676 1.88058 -1.31034
upperneck 8.1239 2.97327 -1.87826
head 4.65455 1.29386 -0.138782
rclavicle 6.38052e-015 3.77691e-015
rhumerus -44.8908 7.23564 -95.1214
rradius 49.2241
rwrist -22.8528
rhand -34.2238 23.9752
rfingers 7.12502
rthumb -7.39557 -5.87551
lclavicle 6.38052e-015 3.77691e-015
lhumerus -47.6055 0.0243657 83.8737
lradius 37.6173
lwrist 23.1375
lhand -19.5169 15.1444
lfingers 7.12502
lthumb 6.80621 45.015
rfemur -1.7223 -3.36047 21.3205
rtibia 24.0144
rfoot 3.5854 -14.3623
rtoes -12.4016
lfemur -1.95173 4.70322 -22.5347
ltibia 26.9183
lfoot 9.65652 15.3428
ltoes -4.91731
151
root 10.4003 25.6483 2.06893 1.23971 -5.34535 -1.44497
lowerback 8.68053 0.034794 2.41318
upperback -2.58429 0.328777 0.0156667
thorax -7.5916 0.0475168 -1.39136
lowerneck -13.8434 1.88014 -1.4538
upperneck 8.2906 2.99225 -1.72845
head 4.74664 1.30403 -0.0641372
rclavicle 9.52342e-015 -5.51627e-015
rhumerus -46.5231 7.95887 -94.8793
rradius 50.1721
rwrist -22.6217
rhand -34.0697 24.201
rfingers 7.12502
rthumb -7.24689 -5.65489
lclavicle 9.52342e-015 -5.51627e-015
lhumerus -48.8392 -0.460214 83.3544
lradius 38.8777
lwrist 22.4069
lhand -20.3339 14.951
lfingers 7.12502
lthumb 6.01749 44.8456
rfemur -2.28728 -3.14348 21.9111
rtibia 24.1018
rfoot 3.52575 -14.1793
rtoes -11.841
lfemur -2.37584 4.43856 -21.8698
ltibia 26.7677
lfoot 9.86413 14.8047
ltoes -6.41442
152
root 10.4064 25.5454 2.07377 1.54558 -5.35005 -2.02208
lowerback 8.78658 0.0191705 2.89448
upperback -2.6105 0.377054 0.138414
thorax -7.67868 0.0500752 -1.54082
lowerneck -13.8772 1.97902 -1.34512
upperneck 8.2369 3.08831 -1.59459
head 4.7346 1.3642 -0.0323795
rclavicle -1.2709e-014 -5.51627e-015
rhumerus -48.2197 8.51341 -94.7009
rradius 51.3235
rwrist -22.3059
rhand -33.7827 23.9805
rfingers 7.12502
rthumb -6.96976 -5.8848
lclavicle -1.2709e-014 -5.51627e-015
lhumerus -50.1388 -1.60894 82.8934
lradius 40.2146
lwrist 22.0644
lhand -20.96 14.9519
lfingers 7.12502
lthumb 5.41294 44.8627
rfemur -3.02842 -2.72592 22.6113
rtibia 24.1837
rfoot 3.50099 -14.2409
rtoes -10.0186
lfemur -3.00022 4.238 -21.1087
ltibia 26.6484
lfoot 10.0186 14.5558
ltoes -7.76572
153
root 10.4136 25.4386 2.07572 1.88883 -5.46164 -1.59271
lowerback 8.84483 0.0867564 2.30654
upperback -2.6358 0.389946 0.000388556
thorax -7.73949 0.0797116 -1.35798
lowerneck -13.6786 2.07755 -1.38223
upperneck 7.83744 3.19005 -1.38277
head 4.57377 1.43355 0.0422148
rclavicle -4.06227e-015 1.09332e-015
rhumerus -49.7309 9.21014 -94.5584
rradius 52.5709
rwrist -22.2599
rhand -33.551 23.9069
rfingers 7.12502
rthumb -6.74611 -5.9656
lclavicle -4.06227e-015 1.09332e-015
lhumerus -51.3688 -2.77758 82.3833
lradius 41.7717
lwrist 21.7902
lhand -21.5966 15.1278
lfingers 7.12502
lthumb 4.79831 45.0535
rfemur -3.89668 -2.24693 22.1974
rtibia 24.1694
rfoot 3.70819 -13.9088
rtoes -10.0457
lfemur -3.83251 4.20458 -21.4531
ltibia 26.6176
lfoot 9.65977 14.4087
ltoes -10.1038
154
root 10.4211 25.318 2.07276 2.18535 -5.70976 -1.44908
lowerback 9.05081 0.195189 1.94423
upperback -2.66013 0.499943 0.0393772
thorax -7.88257 0.150077 -1.13155
lowerneck -13.3621 2.02397 -1.72213
upperneck 7.31364 3.14931 -1.26967
head 4.35318 1.41941 0.120991
rclavicle 6.82235e-015 -5.56597e-015
rhumerus -51.2884 10.1634 -94.3333
rradius 53.873
rwrist -22.5712
rhand -33.3518 24.0459
rfingers 7.12502
rthumb -6.55386 -5.83269
lclavicle 6.82235e-015 -5.56597e-015
lhumerus -52.5857 -3.86865 82.0133
lradius 43.4518
lwrist 21.9904
lhand -22.3106 14.8799
lfingers 7.12502
lthumb 4.10884 44.8201
rfemur -4.79027 -1.55817 22.1239
rtibia 24.271
rfoot 4.19349 -13.6066
rtoes -10.9042
lfemur -4.56608 4.32876 -21.4434
ltibia 26.453
lfoot 9.28306 14.0657
ltoes -12.9882
155
root 10.4314 25.1766 2.07269 2.51647 -5.75527 -1.99604
lowerback 9.17193 0.15567 2.34017
upperback -2.64316 0.515414 0.265782
thorax -7.93384 0.143958 -1.11855
lowerneck -13.2002 1.98553 -1.55557
upperneck 6.81573 3.09935 -1.72197
head 4.18401 1.37994 -0.0538984
rclavicle 1.23021e-014 -3.42904e-015
rhumerus -52.8702 11.1102 -94.1242
rradius 55.3374
rwrist -22.8118
rhand -32.9668 23.7374
rfingers 7.12502
rthumb -6.18218 -6.15242
lclavicle 1.23021e-014 -3.42904e-015
lhumerus -53.813 -4.94414 81.5723
lradius 45.1997
lwrist 22.621
lhand -23.071 14.7225
lfingers 7.12502
lthumb 3.37453 44.6756
rfemur -5.60884 -1.19537 22.7661
rtibia 24.4246
rfoot 4.87456 -13.3056
rtoes -11.5491
lfemur -5.15981 4.18492 -20.6977
ltibia 26.1297
lfoot 9.56348 13.7842
ltoes -13.8531
156
root 10.4447 25.0276 2.07028 2.93706 -5.64215 -1.87705
lowerback 9.17977 0.0367193 2.11289
upperback -2.61087 0.325881 0.235846
thorax -7.91089 0.0623397 -0.992235
lowerneck -13.6728 2.07941 -1.1294
upperneck 6.79138 3.18956 -2.03471
head 4.26484 1.41393 -0.206869
rclavicle 1.73471e-015 -9.14409e-015
rhumerus -54.2862 12.0608 -94.0663
rradius 56.8054
rwrist -23.1056
rhand -32.6161 23.5114
rfingers 7.12502
rthumb -5.8436 -6.38799
lclavicle 1.73471e-015 -9.14409e-015
lhumerus -54.972 -5.80363 80.7366
lradius 47.1083
lwrist 23.1012
lhand -23.6795 15.1456
lfingers 7.12502
lthumb 2.7869 45.1072
rfemur -6.5335 -1.2051 22.595
rtibia 24.418
rfoot 5.59045 -12.7696
rtoes -13.9093
lfemur -5.92344 3.83537 -20.7167
ltibia 25.7713
lfoot 10.5327 14.0224
ltoes -12.3912
157
root 10.4556 24.8724 2.06875 3.26017 -5.45207 -1.66527
lowerback 9.31039 -0.0210429 1.84781
upperback -2.55956 0.212196 0.153007
thorax -7.93493 0.017663 -0.912904
lowerneck -14.3169 2.07779 -1.07226
upperneck 6.88721 3.17571 -1.89057
head 4.39607 1.41152 -0.16532
rclavicle -1.04548e-014 1.53064e-014
rhumerus -55.7201 12.9914 -93.9722
rradius 58.216
rwrist -23.7755
rhand -32.3521 23.3699
rfingers 7.12502
rthumb -5.5887 -6.53639
lclavicle -1.04548e-014 1.53064e-014
lhumerus -56.0297 -6.64863 79.7955
lradius 49.0914
lwrist 23.4097
lhand -23.9998 15.5083
lfingers 7.12502
lthumb 2.47756 45.4737
rfemur -7.33087 -1.10893 22.3025
rtibia 24.279
rfoot 6.21885 -12.4475
rtoes -18.2263
lfemur -6.60484 3.44893 -20.7794
ltibia 25.3716
lfoot 11.7141 14.6232
ltoes -10.0167
158
root 10.4654 24.7053 2.07161 3.47809 -5.17584 -1.78142
lowerback 9.47414 -0.0774174 1.89951
upperback -2.45899 0.150328 0.213127
thorax -7.92356 -0.0126244 -0.868941
lowerneck -14.6849 2.0217 -1.17982
upperneck 6.86038 3.113 -1.75784
head 4.44248 1.38391 -0.108474
rclavicle -6.40149e-015 7.85199e-015
rhumerus -57.2148 13.723 -93.6955
rradius 59.8135
rwrist -24.4587
rhand -32.0418 23.1773
rfingers 7.12502
rthumb -5.28909 -6.73668
lclavicle -6.40149e-015 7.85199e-015
lhumerus -57.0741 -7.74039 79.1026
lradius 51.0753
lwrist 23.7749
lhand -24.1393 15.8697
lfingers 7.12502
lthumb 2.34286 45.8366
rfemur -7.9003 -0.899192 22.3788
rtibia 24.057
rfoot 6.96294 -12.3511
rtoes -20.7359
lfemur -7.08445 3.01706 -20.4451
ltibia 24.9092
lfoot 12.4727 15.2035
ltoes -7.97696
